# xmcd
#
# Track frame offsets:
#	150
#	3496
#	22122
#	38685
#	52011
#	69405
#	83498
#	98409
#	117923
#	133406
#	148467
#	167181
#	178669
#	192565
#
# Disc length: 2753 seconds
#
# Revision: 3792834836
# Processed by: cddbd v1.5.2PL0 Copyright (c) Steve Scherf et al.
# Submitted via: EZCDAudioConverter 8.5.0.1
#
DISCID=c70abf0e
DTITLE=Townes Van Zandt - Live At The Old Quarter, Houston, Texas 
DYEAR=1977
DGENRE=Country
TTITLE0=Announcement
TTITLE1=Pancho and Lefty
TTITLE2=Mr. Mudd and Mr. Gold
TTITLE3=Don't You Take It Too Bad
TTITLE4=Two Girls
TTITLE5=Fraternity Blues
TTITLE6=If I Needed You
TTITLE7=Brand New Companion
TTITLE8=White Freight Liner Blues
TTITLE9=To Live Is To Fly
TTITLE10=She Came And She Touched Me
TTITLE11=Talking Thunderbird Blues
TTITLE12=Rex's Blues
TTITLE13=Nine Pound Hammer
EXTD=
EXTT0=
EXTT1=
EXTT2=
EXTT3=
EXTT4=
EXTT5=
EXTT6=
EXTT7=
EXTT8=
EXTT9=
EXTT10=
EXTT11=
EXTT12=
EXTT13=
PLAYORDER=
